<svg aria-hidden="true" style="position: absolute; width: 0; height: 0; overflow: hidden;" version="1.1" xmlns="http://www.w3.org/2000/svg" xmlns:xlink="http://www.w3.org/1999/xlink">
<defs>
<symbol id="icon-angle-down" viewBox="0 0 56 32">
<path fill="none" stroke="#fff" style="stroke: var(--color1, #fff)" stroke-linejoin="miter" stroke-linecap="butt" stroke-miterlimit="4" stroke-width="4" d="M3 3l25 25 25-25"></path>
</symbol>
<symbol id="icon-arrow-left" viewBox="0 0 55 32">
<path fill="#233000" style="fill: var(--color2, #233000)" d="M15.73 1.123l3.118 3.186-9.484 9.477h44.425v4.429h-44.425l9.482 9.479-3.115 3.184-14.873-14.878 14.873-14.878z"></path>
</symbol>
<symbol id="icon-arrow-right" viewBox="0 0 55 32">
<path d="M38.916 1.122l-3.118 3.186 9.484 9.477h-44.425v4.429h44.425l-9.482 9.479 3.115 3.184 14.873-14.878-14.873-14.878z"></path>
</symbol>
<symbol id="icon-burger" viewBox="0 0 42 32">
<path fill="none" stroke="#fff" style="stroke: var(--color1, #fff)" stroke-linejoin="miter" stroke-linecap="butt" stroke-miterlimit="4" stroke-width="0.9014" d="M10.817 9.465h20.732"></path>
<path fill="none" stroke="#fff" style="stroke: var(--color1, #fff)" stroke-linejoin="miter" stroke-linecap="butt" stroke-miterlimit="4" stroke-width="0.9014" d="M10.817 15.775h20.732"></path>
<path fill="none" stroke="#fff" style="stroke: var(--color1, #fff)" stroke-linejoin="miter" stroke-linecap="butt" stroke-miterlimit="4" stroke-width="0.9014" d="M10.817 22.084h20.732"></path>
</symbol>
<symbol id="icon-carrot" viewBox="0 0 32 32">
<path d="M22.875 3.156l-1.125 1.656c0 0 0.613 0.477 0.906 1.157 0.254 0.597 0.438 1.297-0.531 2.468l-0.875 0.876c-2.945-2.508-5.938-2.626-5.938-2.626h-0.562l-0.313 0.5c0 0-2.55 4.336-5 8.813-1.225 2.238-2.437 4.516-3.279 6.313-0.423 0.898-0.755 1.68-0.97 2.312-0.105 0.316-0.18 0.582-0.218 0.875-0.040 0.293-0.149 0.695 0.343 1.188 0.493 0.492 0.895 0.382 1.188 0.343s0.559-0.113 0.875-0.218c0.633-0.215 1.414-0.547 2.313-0.97 1.794-0.843 4.072-2.053 6.311-3.279 4.473-2.454 8.813-5 8.813-5l0.5-0.313v-0.594c0 0-0.133-2.957-2.625-5.906l0.343-0.375c0.086-0.086 0.164-0.145 0.25-0.219l0.25-0.219c1.18-0.906 2.297-0.87 3.282-0.624 0.683 0.173 1.329 0.469 1.906 0.874l1.25-1.562c0 0-1.11-0.855-2.688-1.25-0.349-0.082-0.704-0.134-1.062-0.156l2.031-2.032-1.438-1.437-2.093 2.094c-0.050-0.236-0.124-0.466-0.219-0.688-0.563-1.312-1.625-2-1.625-2v-0.001zM15.812 8.812c0.657 0.063 2.536 0.336 4.782 2.594 2.25 2.266 2.527 4.13 2.593 4.781-0.164 0.098-1.019 0.614-1.687 1-0.354-0.786-0.795-1.53-1.313-2.218l-1.593 1.219c0.703 0.937 0.992 1.582 1.156 2-1.566 0.887-3.139 1.762-4.719 2.625-0.097 0.050-0.183 0.105-0.281 0.156-0.184-0.547-0.484-1.207-1.031-1.969l-1.625 1.156c0.492 0.688 0.734 1.254 0.844 1.625 0.019 0.063 0.019 0.078 0.030 0.125-1.495 0.801-2.94 1.57-4.124 2.125-0.617 0.29-1.055 0.45-1.5 0.625 0.176-0.445 0.336-0.883 0.625-1.5 0.808-1.722 2.004-3.968 3.218-6.187 0.586-1.070 1.032-1.871 1.563-2.813 0.32 0.281 0.734 0.66 1.188 1.25l1.562-1.219c-0.507-0.673-1.095-1.282-1.75-1.812 1.047-1.836 1.883-3.254 2.063-3.563h-0.001z"></path>
</symbol>
<symbol id="icon-cross" viewBox="0 0 43 32">
<path d="M22.096 15.944l7.115-7.065-0.721-0.716-7.115 7.065-7.115-7.065-0.721 0.716 7.115 7.065-6.928 6.879 0.721 0.716 6.928-6.879 6.928 6.879 0.721-0.716-6.928-6.879z"></path>
</symbol>
<symbol id="icon-fb" viewBox="0 0 32 32">
<path fill="#fff" style="fill: var(--color1, #fff)" d="M2.909 0c-1.591 0-2.909 1.318-2.909 2.909v26.182c0 1.591 1.318 2.909 2.909 2.909h26.182c1.591 0 2.909-1.318 2.909-2.909v-26.182c0-1.591-1.318-2.909-2.909-2.909h-26.182zM2.909 2.909h26.182v26.182h-7.546v-9.818h3.773l0.545-4.364h-4.317v-2.819c0-1.271 0.311-2.135 2.135-2.135h2.364v-3.955c-0.403-0.051-1.801-0.137-3.408-0.137-3.353 0-5.636 2.017-5.636 5.773v3.273h-3.818v4.364h3.817v9.818h-14.090v-26.182z"></path>
</symbol>
<symbol id="icon-fish" viewBox="0 0 32 32">
<path d="M10.5 5.5l0.563 1.375c0.351 0.855 0.828 2.992 0.718 4-1.363 0.84-2.199 1.66-2.844 2.344-0.788-0.637-2.347-1.719-4.937-1.719h-1v1c0 1.914 0.691 3.469 0.938 4-0.25 0.527-0.938 2.027-0.938 4v1h1c2.57 0 4.148-1.086 4.938-1.719 1.183 1.219 2.87 2.504 5 3.469-0.094 0.621-0.168 1.488 0.093 2.5l0.188 0.75h0.781c1.234 0 2.297-0.613 3.156-1.156 0.703-0.446 1.043-0.758 1.219-0.907 3.977-0.14 6.516-2.285 7.875-4.406 1.406-2.191 1.75-4.375 1.75-4.375l0.031-0.25-0.093-0.25c0 0-2.29-6.289-8.5-6.594-0.66-0.8-1.583-1.464-2.875-2-1.528-0.632-3.45-1.062-5.563-1.062h-1.5zM13.406 7.625c1.262 0.14 2.442 0.395 3.375 0.781 1.278 0.528 2.168 1.285 2.375 1.625l0.282 0.469h0.562c4.996 0 6.793 4.73 6.938 5.125-0.070 0.367-0.36 1.762-1.375 3.344-1.161 1.808-3.040 3.531-6.563 3.531h-0.375l-0.281 0.25c0 0-0.528 0.45-1.25 0.906-0.38 0.239-0.703 0.282-1.094 0.438 0.040-0.457 0-1.125 0-1.125l0.219-0.875-0.813-0.282c-2.476-0.945-4.582-2.726-5.656-3.968l-0.688-0.813-0.75 0.75c0 0-1.332 0.934-3.062 1.375 0.258-1.172 0.656-2.218 0.656-2.218l0.219-0.438-0.219-0.438c0 0-0.433-1.148-0.687-2.375 1.843 0.407 3.093 1.532 3.093 1.532l0.75 0.75 0.688-0.813c0.895-1.011 3.305-3.531 6.844-4l-0.282-1.969c-0.957 0.126-1.792 0.403-2.593 0.72-0.051-0.84-0.094-1.563-0.313-2.282zM22.5 14.5c-0.398 0-0.779 0.158-1.061 0.439s-0.439 0.663-0.439 1.061 0.158 0.779 0.439 1.061c0.281 0.281 0.663 0.439 1.061 0.439s0.779-0.158 1.061-0.439c0.281-0.281 0.439-0.663 0.439-1.061s-0.158-0.779-0.439-1.061c-0.281-0.281-0.663-0.439-1.061-0.439z"></path>
</symbol>
<symbol id="icon-inst" viewBox="0 0 32 32">
<path fill="#fff" style="fill: var(--color1, #fff)" d="M9.409 0c-5.165 0-9.409 4.239-9.409 9.409v13.181c0 5.165 4.239 9.41 9.409 9.41h13.181c5.165 0 9.41-4.239 9.41-9.41v-13.18c0-5.167-4.239-9.411-9.41-9.411h-13.181zM9.409 2.909h13.181c0.854-0.001 1.7 0.166 2.489 0.492s1.506 0.805 2.11 1.409c0.604 0.604 1.082 1.321 1.409 2.11s0.494 1.635 0.492 2.489v13.181c0.001 0.854-0.166 1.7-0.492 2.489s-0.805 1.506-1.409 2.11c-0.604 0.604-1.321 1.082-2.11 1.409s-1.635 0.494-2.489 0.492h-13.18c-0.854 0.001-1.7-0.166-2.489-0.492s-1.507-0.805-2.111-1.409c-0.604-0.604-1.083-1.321-1.409-2.11s-0.494-1.635-0.493-2.489c0 0 0.001-12.326 0-13.18s0.166-1.7 0.492-2.489c0.326-0.789 0.805-1.507 1.409-2.111s1.321-1.083 2.11-1.409c0.789-0.326 1.635-0.494 2.489-0.493zM24.59 6.092c-0.173-0.001-0.345 0.033-0.505 0.099s-0.306 0.163-0.428 0.286c-0.122 0.123-0.22 0.268-0.286 0.428s-0.099 0.332-0.099 0.505c0 0.733 0.585 1.318 1.318 1.318 0.173 0.001 0.345-0.032 0.506-0.098s0.306-0.163 0.429-0.285c0.123-0.123 0.22-0.268 0.286-0.429s0.1-0.332 0.099-0.506c0.001-0.173-0.033-0.345-0.099-0.506s-0.163-0.306-0.286-0.428c-0.123-0.123-0.268-0.22-0.429-0.285s-0.332-0.099-0.506-0.098zM16 7.273c-4.8 0-8.727 3.927-8.727 8.727s3.927 8.727 8.727 8.727c4.8 0 8.727-3.927 8.727-8.727s-3.927-8.727-8.727-8.727zM16 10.182c3.233 0 5.818 2.585 5.818 5.818s-2.585 5.818-5.818 5.818c-3.233 0-5.818-2.585-5.818-5.818s2.585-5.818 5.818-5.818z"></path>
</symbol>
<symbol id="icon-lemon" viewBox="0 0 32 32">
<path d="M12 4c-2.582 0-4.879 1.438-6.469 3.625s-2.531 5.14-2.531 8.375c0 3.234 0.941 6.188 2.531 8.375 1.59 2.188 3.887 3.625 6.469 3.625 8.23 0 12.617-4.707 13.688-9.656 0.752-0.544 1.312-1.348 1.312-2.344s-0.559-1.8-1.313-2.344c-1.127-5.074-6.374-9.656-13.687-9.656zM12 6c1.836 0 3.54 1.016 4.844 2.813 1.304 1.795 2.156 4.347 2.156 7.187s-0.852 5.39-2.156 7.188c-1.305 1.795-3.008 2.812-4.844 2.812s-3.54-1.016-4.844-2.813c-1.304-1.795-2.156-4.347-2.156-7.187s0.852-5.39 2.156-7.188c1.305-1.796 3.008-2.812 4.844-2.812zM18.375 7.531c3.040 1.61 4.992 4.258 5.469 6.844l0.093 0.5 0.47 0.219c0.347 0.16 0.593 0.496 0.593 0.906s-0.246 0.746-0.594 0.906l-0.468 0.219-0.094 0.5c-0.532 2.895-2.278 5.734-5.782 7.25 0.137-0.164 0.278-0.324 0.407-0.5 1.59-2.188 2.531-5.14 2.531-8.375s-0.941-6.188-2.531-8.375c-0.028-0.035-0.067-0.059-0.094-0.094zM12 8c-0.715 0-1.387 0.258-2 0.688l2.031 4.78 2.063-4.75c-0.634-0.463-1.352-0.718-2.094-0.718zM8.5 10.281c-0.785 1.23-1.324 2.88-1.469 4.719h3.469l-2-4.719zM15.563 10.375l-2.033 4.625h3.438c-0.14-1.797-0.649-3.402-1.407-4.625h0.002zM7.030 17c0.14 1.797 0.649 3.402 1.406 4.625l2.034-4.625h-3.44zM13.499 17l2 4.719c0.785-1.23 1.324-2.88 1.469-4.719h-3.469zM11.968 18.531l-2.063 4.75c0.633 0.465 1.352 0.719 2.094 0.719 0.715 0 1.387-0.258 2-0.688l-2.031-4.781z"></path>
</symbol>
<symbol id="icon-logo" viewBox="0 0 85 32">
<path fill="#fff" style="fill: var(--color1, #fff)" d="M15.844 0.555h52.256v6.944h0.556v-7.499h-53.368v7.499h0.556v-6.944z"></path>
<path fill="#fff" style="fill: var(--color1, #fff)" d="M15.844 24.165h-0.556v7.777h53.368v-7.777h-0.556v7.222h-52.256v-7.222z"></path>
<path fill="#fff" style="fill: var(--color1, #fff)" d="M4.102 15.093v5.357l1.63 0.172v0.459h-5.732v-0.459l1.63-0.172v-11.517l-1.63-0.21v-0.44h9.554v2.736h-0.599l-0.712-2.028-4.14-0.057v5.472h3.653l0.581-1.416h0.543v3.558h-0.562l-0.562-1.454h-3.653z"></path>
<path fill="#fff" style="fill: var(--color1, #fff)" d="M19.208 19.914c-0.874 0.918-2.067 1.377-3.578 1.377s-2.704-0.459-3.578-1.377c-0.874-0.918-1.311-2.085-1.311-3.501s0.437-2.583 1.311-3.501 2.067-1.377 3.578-1.377c1.511 0 2.704 0.459 3.578 1.377s1.311 2.085 1.311 3.501c0 1.416-0.437 2.583-1.311 3.501zM13.345 16.413c0 2.946 0.762 4.419 2.285 4.419s2.285-1.473 2.285-4.419c0-1.441-0.169-2.532-0.506-3.271-0.337-0.752-0.93-1.129-1.78-1.129s-1.442 0.376-1.78 1.129c-0.337 0.74-0.506 1.83-0.506 3.271z"></path>
<path fill="#fff" style="fill: var(--color1, #fff)" d="M30.44 19.914c-0.874 0.918-2.067 1.377-3.578 1.377s-2.704-0.459-3.578-1.377c-0.874-0.918-1.311-2.085-1.311-3.501s0.437-2.583 1.311-3.501 2.067-1.377 3.578-1.377c1.511 0 2.704 0.459 3.578 1.377s1.311 2.085 1.311 3.501c0 1.416-0.437 2.583-1.311 3.501zM24.577 16.413c0 2.946 0.762 4.419 2.285 4.419s2.285-1.473 2.285-4.419c0-1.441-0.169-2.532-0.506-3.271-0.337-0.752-0.93-1.129-1.78-1.129s-1.442 0.376-1.78 1.129c-0.337 0.74-0.506 1.83-0.506 3.271z"></path>
<path fill="#fff" style="fill: var(--color1, #fff)" d="M37.177 21.368c-1.137 0-2.079-0.389-2.829-1.167s-1.124-1.951-1.124-3.52 0.443-2.806 1.33-3.711c0.899-0.906 2.092-1.358 3.578-1.358 0.774 0 1.505 0.185 2.192 0.555v-4.859l-1.611-0.115v-0.478l4.009-0.325v14.253l1.592 0.076 0.019 0.44-3.915 0.23 0.038-1.722h-0.112c-0.312 0.536-0.756 0.956-1.33 1.263-0.574 0.293-1.186 0.44-1.836 0.44zM40.305 18.135v-5.261c-0.5-0.472-1.137-0.708-1.911-0.708-0.986 0-1.661 0.466-2.023 1.397-0.3 0.816-0.45 1.856-0.45 3.118 0 2.717 0.593 4.075 1.78 4.075 0.699 0 1.305-0.306 1.817-0.918 0.525-0.612 0.787-1.18 0.787-1.703z"></path>
<path fill="#fff" style="fill: var(--color1, #fff)" d="M45.247 11.114v-2.812l10.902-0.038v0.593l-8.092 11.249 6.762 0.038 0.656-2.105h0.618v2.793l-11.108 0.038v-0.536l8.167-11.307-6.631-0.038-0.656 2.124h-0.618z"></path>
<path fill="#fff" style="fill: var(--color1, #fff)" d="M63.793 14.404c0-1.556-0.531-2.334-1.592-2.334-1.111 0-1.786 0.995-2.023 2.984h3.578c0.025-0.255 0.038-0.472 0.038-0.65zM62.032 21.292c-1.336 0-2.423-0.446-3.26-1.339-0.824-0.893-1.236-2.073-1.236-3.539s0.431-2.646 1.292-3.539c0.874-0.893 1.98-1.339 3.316-1.339s2.335 0.293 2.997 0.88c0.662 0.574 0.993 1.377 0.993 2.411 0 0.293-0.025 0.599-0.075 0.918h-5.938v0.67c0 1.428 0.175 2.513 0.524 3.252 0.35 0.727 0.874 1.090 1.574 1.090 0.712 0 1.355-0.147 1.929-0.44 0.587-0.306 1.043-0.733 1.367-1.282 0.275 0.089 0.412 0.223 0.412 0.402 0 0.319-0.293 0.689-0.881 1.11-0.287 0.204-0.699 0.383-1.236 0.536-0.524 0.14-1.118 0.21-1.78 0.21z"></path>
<path fill="#fff" style="fill: var(--color1, #fff)" d="M70.932 14.003c0.212-0.689 0.599-1.275 1.161-1.76 0.574-0.485 1.093-0.727 1.555-0.727 0.475 0 0.793 0.121 0.955 0.364 0.162 0.23 0.243 0.421 0.243 0.574 0 0.523-0.187 0.899-0.562 1.129-0.25-0.204-0.624-0.306-1.124-0.306-0.487 0-0.974 0.159-1.461 0.478-0.487 0.306-0.731 0.644-0.731 1.014v5.759l1.686 0.115v0.44h-5.226v-0.44l1.236-0.096v-8.169l-1.517-0.077v-0.44l3.822-0.21-0.113 2.353h0.075z"></path>
<path fill="#fff" style="fill: var(--color1, #fff)" d="M84.022 19.914c-0.874 0.918-2.067 1.377-3.578 1.377s-2.704-0.459-3.578-1.377c-0.874-0.918-1.311-2.085-1.311-3.501s0.437-2.583 1.311-3.501c0.874-0.918 2.067-1.377 3.578-1.377s2.704 0.459 3.578 1.377c0.874 0.918 1.311 2.085 1.311 3.501s-0.437 2.583-1.311 3.501zM78.159 16.413c0 2.946 0.762 4.419 2.285 4.419s2.285-1.473 2.285-4.419c0-1.441-0.169-2.532-0.506-3.271-0.337-0.752-0.93-1.129-1.78-1.129s-1.442 0.376-1.78 1.129c-0.337 0.74-0.506 1.83-0.506 3.271z"></path>
</symbol>
<symbol id="icon-play" viewBox="0 0 32 32">
<path fill="none" stroke="#fff" style="stroke: var(--color1, #fff)" stroke-linejoin="miter" stroke-linecap="butt" stroke-miterlimit="4" stroke-width="0.9014" d="M31.549 16c0 8.588-6.962 15.549-15.549 15.549s-15.549-6.962-15.549-15.549c0-8.588 6.962-15.549 15.549-15.549s15.549 6.962 15.549 15.549z"></path>
<path stroke-linejoin="miter" stroke-linecap="butt" stroke-miterlimit="4" stroke-width="0.9014" d="M31.549 16c0 8.588-6.962 15.549-15.549 15.549s-15.549-6.962-15.549-15.549c0-8.588 6.962-15.549 15.549-15.549s15.549 6.962 15.549 15.549z"></path>
<path fill="none" stroke="#fff" style="stroke: var(--color1, #fff)" stroke-linejoin="miter" stroke-linecap="butt" stroke-miterlimit="4" stroke-width="0.9014" d="M14.197 11.426l6.225 4.574-6.225 4.574v-9.148z"></path>
</symbol>
<symbol id="icon-search" viewBox="0 0 32 32">
<path d="M12.307 0c6.784 0 12.308 5.524 12.308 12.308 0 2.948-1.034 5.649-2.769 7.77l9.808 9.806-1.771 1.772-9.807-9.808c-2.19 1.796-4.936 2.774-7.769 2.768-6.784 0-12.308-5.524-12.308-12.308s5.524-12.308 12.308-12.308zM12.307 2.462c-5.452 0-9.846 4.394-9.846 9.846s4.394 9.846 9.846 9.846c5.452 0 9.846-4.394 9.846-9.846s-4.394-9.846-9.846-9.846z"></path>
</symbol>
<symbol id="icon-twit" viewBox="0 0 41 32">
<path fill="#fff" style="fill: var(--color1, #fff)" d="M40.727 3.796c-1.525 0.653-3.143 1.080-4.799 1.268 1.744-1.009 3.049-2.597 3.672-4.466-1.64 0.939-3.433 1.603-5.303 1.962-1.145-1.184-2.633-2.007-4.269-2.362s-3.345-0.227-4.904 0.368c-1.559 0.596-2.897 1.631-3.84 2.972s-1.446 2.924-1.445 4.545c0 0.635 0.073 1.25 0.221 1.839-3.323-0.158-6.575-0.991-9.543-2.445s-5.586-3.496-7.683-5.994c-0.745 1.233-1.136 2.635-1.132 4.063 0 2.8 1.471 5.273 3.718 6.722-1.327-0.041-2.625-0.388-3.784-1.014v0.103c-0.001 1.865 0.666 3.673 1.888 5.117s2.923 2.434 4.815 2.802c-1.23 0.326-2.521 0.374-3.774 0.141 0.534 1.605 1.572 3.008 2.971 4.015s3.088 1.565 4.831 1.598c-1.733 1.315-3.718 2.287-5.84 2.859s-4.34 0.735-6.528 0.479c3.819 2.376 8.265 3.637 12.807 3.633 15.371 0 23.778-12.308 23.778-22.983 0-0.344-0.014-0.699-0.027-1.045 1.633-1.143 3.045-2.556 4.169-4.174v-0.002z"></path>
</symbol>
<symbol id="icon-youtube" viewBox="0 0 41 32">
<path fill="#fff" style="fill: var(--color1, #fff)" d="M20.364 0c-5.899 0-11.112 0.624-14.294 1.101-2.632 0.394-4.754 2.418-5.238 5.099-0.409 2.282-0.832 5.619-0.832 9.8s0.423 7.52 0.832 9.8c0.484 2.682 2.607 4.712 5.238 5.101 3.196 0.474 8.426 1.099 14.294 1.099s11.1-0.624 14.294-1.101c2.632-0.387 4.754-2.418 5.238-5.099 0.409-2.288 0.832-5.632 0.832-9.8s-0.417-7.512-0.832-9.8c-0.484-2.682-2.607-4.706-5.238-5.101-3.181-0.474-8.396-1.099-14.294-1.099zM20.364 3.2c5.691 0 10.776 0.594 13.854 1.050 0.64 0.093 1.234 0.39 1.7 0.848s0.778 1.053 0.894 1.703c0.379 2.112 0.783 5.243 0.783 9.2 0 3.95-0.404 7.088-0.783 9.2-0.114 0.65-0.426 1.247-0.892 1.705s-1.062 0.754-1.702 0.845c-3.092 0.456-8.2 1.050-13.854 1.050-5.655 0-10.769-0.594-13.854-1.050-0.64-0.093-1.235-0.389-1.701-0.847s-0.778-1.054-0.893-1.704c-0.379-2.112-0.783-5.237-0.783-9.2 0-3.968 0.404-7.088 0.783-9.2 0.115-0.65 0.427-1.246 0.893-1.704s1.061-0.754 1.701-0.847c3.072-0.456 8.163-1.050 13.854-1.050zM15.664 6.85v18.302l2.35-1.35 10.965-6.4 2.35-1.402-2.35-1.4-10.965-6.4-2.35-1.35zM18.797 12.35l6.217 3.65-6.217 3.65v-7.299z"></path>
</symbol>
</defs>
</svg>
